HIERARCHY
ROOT Hips
{
	OFFSET 0.000000 0.000000 0.000000
	CHANNELS 6 Xposition Yposition Zposition Zrotation Yrotation Xrotation 
	JOINT LHipJoint
	{
		OFFSET 0.000000 0.000000 0.000000
		CHANNELS 3 Zrotation Yrotation Xrotation
		JOINT LeftUpLeg
		{
			OFFSET 1.363060 -1.794630 0.839290
			CHANNELS 3 Zrotation Yrotation Xrotation
			JOINT LeftLeg
			{
				OFFSET 2.448110 -6.726130 0.000000
				CHANNELS 3 Zrotation Yrotation Xrotation
				JOINT LeftFoot
				{
					OFFSET 2.562200 -7.039590 0.000000
					CHANNELS 3 Zrotation Yrotation Xrotation
					JOINT LeftToeBase
					{
						OFFSET 0.157640 -0.433110 2.322550
						CHANNELS 3 Zrotation Yrotation Xrotation
						End Site
						{
							OFFSET 0.000000 0.000000 0.000000
						}
					}
				}
			}
		}
	}
	JOINT RHipJoint
	{
		OFFSET 0.000000 0.000000 0.000000
		CHANNELS 3 Zrotation Yrotation Xrotation
		JOINT RightUpLeg
		{
			OFFSET -1.305520 -1.794630 0.839290
			CHANNELS 3 Zrotation Yrotation Xrotation
			JOINT RightLeg
			{
				OFFSET -2.542530 -6.985550 0.000000
				CHANNELS 3 Zrotation Yrotation Xrotation
				JOINT RightFoot
				{
					OFFSET -2.568260 -7.056230 0.000000
					CHANNELS 3 Zrotation Yrotation Xrotation
					JOINT RightToeBase
					{
						OFFSET -0.164730 -0.452590 2.363150
						CHANNELS 3 Zrotation Yrotation Xrotation
						End Site
						{
							OFFSET 0.000000 0.000000 0.000000
						}
					}
				}
			}
		}
	}
	JOINT LowerBack
	{
		OFFSET 0.000000 0.000000 0.000000
		CHANNELS 3 Zrotation Yrotation Xrotation
		JOINT Spine
		{
			OFFSET 0.028270 2.035590 -0.193380
			CHANNELS 3 Zrotation Yrotation Xrotation
			JOINT Spine1
			{
				OFFSET 0.056720 2.048850 -0.042750
				CHANNELS 3 Zrotation Yrotation Xrotation
				JOINT Neck
				{
					OFFSET 0.000000 0.000000 0.000000
					CHANNELS 3 Zrotation Yrotation Xrotation
					JOINT Neck1
					{
						OFFSET -0.054170 1.746240 0.172020
						CHANNELS 3 Zrotation Yrotation Xrotation
						JOINT Head
						{
							OFFSET 0.104070 1.761360 -0.123970
							CHANNELS 3 Zrotation Yrotation Xrotation
							End Site
							{
								OFFSET 0.000000 0.000000 0.000000
							}
						}
					}
				}
				JOINT LeftShoulder
				{
					OFFSET 0.000000 0.000000 0.000000
					CHANNELS 3 Zrotation Yrotation Xrotation
					JOINT LeftArm
					{
						OFFSET 3.362410 1.200890 -0.311210
						CHANNELS 3 Zrotation Yrotation Xrotation
						JOINT LeftForeArm
						{
							OFFSET 4.983000 -0.000000 -0.000000
							CHANNELS 3 Zrotation Yrotation Xrotation
							JOINT LeftHand
							{
								OFFSET 3.483560 -0.000000 -0.000000
								CHANNELS 3 Zrotation Yrotation Xrotation
								JOINT LeftFingerBase
								{
									OFFSET 0.000000 0.000000 0.000000
									CHANNELS 3 Zrotation Yrotation Xrotation
									JOINT LeftHandIndex1
									{
										OFFSET 0.715260 -0.000000 -0.000000
										CHANNELS 3 Zrotation Yrotation Xrotation
										End Site
										{
											OFFSET 0.000000 0.000000 0.000000
										}
									}
								}
								JOINT LThumb
								{
									OFFSET 0.000000 0.000000 0.000000
									CHANNELS 3 Zrotation Yrotation Xrotation
									End Site
									{
										OFFSET 0.000000 0.000000 0.000000
									}
								}
							}
						}
					}
				}
				JOINT RightShoulder
				{
					OFFSET 0.000000 0.000000 0.000000
					CHANNELS 3 Zrotation Yrotation Xrotation
					JOINT RightArm
					{
						OFFSET -3.136600 1.374050 -0.404650
						CHANNELS 3 Zrotation Yrotation Xrotation
						JOINT RightForeArm
						{
							OFFSET -5.241900 -0.000000 -0.000000
							CHANNELS 3 Zrotation Yrotation Xrotation
							JOINT RightHand
							{
								OFFSET -3.444170 -0.000000 -0.000000
								CHANNELS 3 Zrotation Yrotation Xrotation
								JOINT RightFingerBase
								{
									OFFSET 0.000000 0.000000 0.000000
									CHANNELS 3 Zrotation Yrotation Xrotation
									JOINT RightHandIndex1
									{
										OFFSET -0.622530 -0.000000 -0.000000
										CHANNELS 3 Zrotation Yrotation Xrotation
										End Site
										{
											OFFSET 0.000000 0.000000 0.000000
										}
									}
								}
								JOINT RThumb
								{
									OFFSET 0.000000 0.000000 0.000000
									CHANNELS 3 Zrotation Yrotation Xrotation
									End Site
									{
										OFFSET 0.000000 0.000000 0.000000
									}
								}
							}
						}
					}
				}
			}
		}
	}
}
MOTION
Frames: 7
Frame Time: 0.008333
-1.351318 17.940679 46.674141 -175.769571 9.475249 -177.806085 0.357426 3.507940 2.813942 -11.269610 -15.289079 -32.309227 2.263860 11.163208 33.240695 -1.841336 9.039384 9.230998 0.028600 -1.091400 -3.000300 0.101987 -4.617801 5.079383 26.696284 8.450232 -0.792183 -1.479820 -7.222253 26.992645 1.924231 -8.952948 -11.363758 -0.131300 -2.335200 6.433100 4.497354 0.780046 14.494766 7.332004 2.308467 12.773211 1.976034 1.785463 -10.809300 -2.371032 -3.579264 -14.407333 -0.225130 -3.132269 18.213567 -1.009000 -1.367900 8.110700 -1.598003 0.438824 -0.839607 -89.662850 9.865764 28.857676 27.204408 -36.317383 -9.326003 0.351549 -1.123202 -5.551676 10.236929 49.988855 7.829400 -7.125000 0.000000 0.000000 -61.483100 74.343600 -46.437100 -0.606708 0.071013 0.324493 70.776093 21.131578 -13.844061 -16.356576 25.087574 -3.123507 -0.278710 0.134376 6.022489 -7.527645 0.237187 -0.016800 7.125000 0.000000 0.000000 15.078600 -29.665900 5.822500 
-1.338776 17.932753 46.612335 -175.438456 9.024884 -177.564288 0.311088 3.443846 2.705689 -10.612397 -15.637512 -32.665719 1.906839 10.732093 31.608325 -1.867244 9.420698 10.418728 0.040200 -1.293500 -3.556800 0.158379 -4.616621 5.108200 27.100609 8.298918 -0.360874 -1.325159 -6.960157 26.200848 2.063570 -9.335962 -11.349468 -0.155500 -2.540600 7.002200 4.484774 0.817089 15.582419 7.796987 2.486553 12.043150 2.277920 1.864722 -12.020148 -2.574500 -3.670973 -13.896333 -0.334763 -3.165388 18.309151 -1.000700 -1.384900 8.045600 -1.591504 0.481269 -0.830793 -89.883710 10.767010 29.093540 27.611743 -36.715264 -9.599806 0.362267 -1.118497 -5.523966 9.982269 49.993539 7.619600 -7.125000 0.000000 0.000000 -61.651000 74.244100 -46.477300 -0.639900 0.067185 0.315056 70.822602 20.362373 -16.319021 -15.383157 23.673804 -2.730886 -0.315640 0.077767 2.179943 -8.466146 -1.314975 0.197900 7.125000 0.000000 0.000000 14.607100 -31.164600 5.086900 
-1.348809 17.960044 46.475276 -175.581512 9.857531 -177.443064 0.201033 3.444551 2.664309 -10.396069 -15.790404 -32.444890 1.571579 10.275437 30.056539 -2.188990 10.423950 9.961263 0.019800 -0.907800 -2.495100 0.210117 -4.666908 5.177819 26.545857 8.552552 0.411322 -1.149676 -6.681519 25.298194 1.981632 -8.979768 -10.913584 -0.145300 -2.456200 6.768200 4.471202 1.157633 14.748364 7.765233 2.811708 12.519277 2.172813 2.055684 -11.193687 -2.592987 -3.634717 -13.774164 -0.309913 -3.175548 17.888510 -0.991700 -1.405400 7.900100 -1.578340 0.445168 -0.827860 -89.867225 10.556920 29.121949 28.063531 -37.147635 -9.893829 0.375379 -1.111586 -5.690286 9.579436 50.081746 7.302400 -7.125000 0.000000 0.000000 -62.174900 74.122200 -46.805000 -0.669787 0.072392 0.272060 71.049378 20.753227 -20.142378 -14.391582 22.257506 -2.359904 -0.343778 0.050107 0.638720 -9.430891 -2.076443 0.339800 7.125000 0.000000 0.000000 13.989800 -31.920000 4.597800 
-1.355130 17.967971 46.361998 -175.600900 10.091803 -177.380147 0.110559 3.436303 2.606182 -10.101170 -16.085274 -32.280896 1.260213 9.824638 28.557349 -2.403922 11.144663 9.953166 0.022400 -0.966100 -2.655600 0.255846 -4.700531 5.235980 26.283495 8.413525 1.028060 -1.011834 -6.443687 24.553721 1.986720 -8.912033 -10.603809 -0.111800 -2.155700 5.936200 4.503075 1.276212 14.745759 7.887353 2.969036 12.491512 2.203279 2.143886 -11.231492 -2.767739 -3.643325 -13.297168 -0.371959 -3.158374 17.677045 -0.973800 -1.408100 7.754200 -1.574475 0.439733 -0.822643 -90.013949 10.766403 28.909603 28.251611 -37.327037 -10.023328 0.387127 -1.103156 -5.814494 9.264317 49.443147 6.982400 -7.125000 0.000000 0.000000 -60.305200 73.733500 -44.759100 -0.686428 0.073048 0.245336 71.332617 20.460974 -23.497688 -13.734502 21.312078 -2.126859 -0.370278 0.025599 -0.727147 -10.383897 -2.742109 0.490000 7.125000 0.000000 0.000000 13.360200 -32.591200 4.158300 
-1.358141 17.968071 46.253836 -175.499764 10.135676 -177.167956 0.038545 3.422589 2.551309 -9.627876 -16.493687 -32.278757 0.951104 9.375643 27.089318 -2.544212 11.521860 9.580964 0.014200 -0.768900 -2.113200 0.294716 -4.712562 5.281017 26.220524 8.287740 1.469792 -0.891137 -6.220611 23.877754 2.067410 -9.063349 -10.291007 -0.084600 -1.876500 5.164300 4.808636 1.274066 14.359333 7.874144 2.993999 12.732188 2.032584 2.170241 -10.803832 -2.773715 -3.579598 -13.410301 -0.266020 -3.131408 17.404077 -0.942500 -1.403500 7.693600 -1.570600 0.415808 -0.817091 -89.946465 10.456328 28.620059 28.394902 -37.468806 -10.119638 0.392673 -1.092852 -6.089118 9.325373 48.790212 6.962700 -7.125000 0.000000 0.000000 -58.220300 73.460000 -42.683200 -0.692175 0.082469 0.217434 71.856436 20.516367 -26.560470 -13.350967 20.758840 -1.989471 -0.421341 -0.003337 -2.341946 -12.275692 -3.632388 0.766100 7.125000 0.000000 0.000000 12.027200 -33.528200 3.447700 
-1.353926 17.964860 46.158517 -175.562735 9.950810 -176.983075 -0.018567 3.398530 2.498765 -9.357003 -16.898290 -32.392266 0.679512 8.968461 25.813330 -2.575389 11.538118 9.226574 0.005000 -0.455200 -1.250700 0.323953 -4.721412 5.319444 26.081786 8.217661 1.783365 -0.808723 -6.072302 23.430497 2.082051 -9.093439 -10.281825 -0.077600 -1.797500 4.946400 4.885389 1.341339 14.291586 7.808631 3.090538 12.931508 1.940377 2.231785 -10.598304 -2.638460 -3.646873 -14.093103 -0.195522 -3.269617 17.462695 -0.967100 -1.472300 7.831100 -1.569407 0.404183 -0.808814 -89.701196 9.918086 28.661171 28.433076 -37.514051 -10.148599 0.394326 -1.082581 -6.499598 9.663401 48.216559 7.167000 -7.125000 0.000000 0.000000 -56.229300 73.308800 -40.847800 -0.690938 0.103306 0.198006 72.438639 20.434421 -29.499768 -13.198995 20.570337 -1.933531 -0.466879 -0.025020 -3.552206 -14.062792 -4.263666 1.033100 7.125000 0.000000 0.000000 10.714900 -34.225100 2.875300 
-1.343692 17.958238 46.072530 -175.572967 9.621589 -176.744689 -0.054514 3.363161 2.438489 -9.007243 -17.398521 -32.583072 0.448818 8.604615 24.690194 -2.547307 11.386327 8.961041 0.000100 -0.069400 -0.190600 0.350507 -4.729312 5.349843 26.072649 8.099095 2.021983 -0.737012 -5.932019 23.007377 2.171321 -9.287827 -10.017259 -0.045100 -1.371000 3.770200 4.870753 1.299805 14.223343 7.867289 3.022625 12.810677 2.020507 2.203782 -10.660450 -2.814005 -3.558227 -13.303747 0.049235 -3.240661 16.790162 -0.848000 -1.458400 7.486500 -1.564984 0.390291 -0.806061 -89.667425 10.130410 28.254322 28.705274 -37.770779 -10.321450 0.407520 -1.077581 -6.729051 9.217986 48.399186 6.836000 -7.125000 0.000000 0.000000 -57.095900 73.228700 -41.490300 -0.680061 0.096891 0.182546 73.074947 19.776653 -31.295435 -13.228281 20.627130 -1.936631 -0.501029 -0.033304 -4.630749 -15.513536 -4.316262 1.161000 7.125000 0.000000 0.000000 9.571800 -34.343200 2.533000 
